<?xml version="1.0" encoding="utf-8"?>
<!-- Generator: Adobe Illustrator 24.1.2, SVG Export Plug-In . SVG Version: 6.00 Build 0)  -->
<svg version="1.1" xmlns="http://www.w3.org/2000/svg" xmlns:xlink="http://www.w3.org/1999/xlink" x="0px" y="0px"
	 viewBox="0 0 1693.08 1784.72" style="enable-background:new 0 0 1693.08 1784.72;" xml:space="preserve">
<style type="text/css">
	.st0{fill:#191E0F;}
	.st1{fill:#E4D5C6;}
</style>
<g id="Guidelines">
</g>
<g id="Sign">
	<g>
		<g>
			<path class="st1" d="M1075.01,757.17c0,9.31,6.86,16.17,15.32,16.17c8.46,0,15.32-6.86,15.32-16.17
				c0-11.88-15.32-28.14-15.32-28.14S1075.01,745.29,1075.01,757.17z"/>
			<path class="st1" d="M1090.33,660.41c0,0-15.32,16.26-15.32,28.14c0,9.31,6.86,16.17,15.32,16.17c8.46,0,15.32-6.86,15.32-16.17
				C1105.65,676.68,1090.33,660.41,1090.33,660.41z"/>
			<path class="st1" d="M1090.33,591.8c0,0-15.32,16.26-15.32,28.14c0,9.31,6.86,16.17,15.32,16.17c8.46,0,15.32-6.86,15.32-16.17
				C1105.65,608.06,1090.33,591.8,1090.33,591.8z"/>
			<path class="st1" d="M1055.07,1159.29c-9.77-2.51-24.53-7.83-35.13-12.18c26.28,3.11,48.63-1.11,60.9-4.61
				c90.63-25.85,99.12-142.83,96.32-166.08c-13.18,31.47-29.34,48.54-64.96,57.62c-36.78,9.38-61.26,25.05-75.89,56.01
				c-6.94-33.56-34.65-74.16-86.35-90.37c35.66-58.12,11.69-144.76-57.6-199.77c-26.79-21.27-56.65-34.86-86.01-40.8
				c10.78-0.62,31.28,1.19,42.06,3.59c-6.11-14.41-19.04-22.89-24.86-30.13c-11.4-14.19,2.4-33.99,2.22-50.48
				c-0.33-30.31-48.14-44.57-56.31-58c-2.15-3.54-3.33-7.58-3.33-11.63c0-10.18,7.56-20.25,18.55-18.78
				c8.73,14.84,22.32,20.1,37.06,20.65c-11.91-9.06-21.11-15.89-25.04-25.66c12.22-6.72,26.95-9.24,38.88-9.24
				c40.96,0,56.73,28,56.73,47.89c0,14.01-5.33,29.52-5.33,40c0,12.31,4.3,20.82,10.77,29.08c7.81,9.98,13.37,13.68,11.92,29.1
				c-0.96,10.22-3.76,20.83-3.76,31.27c0,15.71,5.88,39.87,21.46,48.14c-6.63-11.25-12.31-31.48-12.31-47.22
				c0-11.83,4.98-25.12,4.98-38.25c0-23.4-20.89-28.54-21.29-49.5c-0.23-11.92,6.17-25.96,6.26-44.66
				c0.13-25.93-22.77-59.71-68.09-59.23c-14.47,0.15-31.8,4.31-44.88,16.03c-1.95-0.39-4.43-0.61-6.57-0.61
				c-13.39,0-27.45,10.06-28.23,28.77c-0.12,2.91,0.28,7.8,2.27,12.73c-1.35,4.22-9.88,29.96-18.33,55.37
				c13.93,2.86,9.32,9.86,10.27,18.85c1.59,15.01,11.52,19,19.1,19.34c10.43,0.47,24.57-7.15,35.1-16.84
				c-5.08,12.99-21.1,20.89-32.3,24.78l-0.02,31.25c-10.35-0.02-20.46,0.99-30.15,2.99c-27.51-16.58-55.85-50.72-65.12-78.29
				c-13.79-40.96-3.03-81.98,25.59-117.43l-16.05-12.13c17.76,5.14,40.56-2.06,51.58-17.01l-0.99,12.39l26.13,2.08l3.55-44.56
				l7.79,28.71l314.66,25.02c-24.2-34.66-36.01-40.17-64.34-42.38L768.56,495l1.41-17.65l-26.14-2.07l-2.74,34.51
				c-2.67-17.05-5.15-28.62-19.05-28.62c-9.8,0-24.21,5.35-29.94,11.57l-27.09-2.15l-2.31,29.17l15.82,1.29
				c2.56-4.86,5.94-11.25,10.72-19.89c-8.16,26.29,0.49,26.08-16.58,45.08c-19.09,21.25-49.6,66.37-49.58,121.38
				c0.02,45.25,18.14,88.38,46.66,122.98c9.52-7.75,27.21-14.86,37.79-17.35c-11.17,5.85-25.63,18.16-33.35,27.93
				c-44.78,56.68-20.13,150.24,52.24,207.71c26.65,21.16,56.34,34.72,85.56,40.69c-58.24-2.16-106.56-32.87-130.02-57.11
				c-28.6,32.76-69.32,86.8-71.42,152.92c-3.42,107.48,97.82,172.25,205.69,172.25C922.62,1317.64,1022.82,1255.63,1055.07,1159.29z
				 M796.66,909.5c-11.32-22.45-19.51-42.33-37.26-58.3c-14.61-13.38-34.35-23.18-62.9-34.55c35.54-1.92,61.97,9.5,75.25,18.27
				c22.68,14.98,33.18,33.94,45.14,57.18c14.05,27.3,21.8,46.22,37.25,60.99c16.56,15.82,34.73,24.57,65.71,37.19
				c-38.69,1.88-66.48-10.71-82.07-23.18C816.64,950.18,807.91,930.88,796.66,909.5z M899.62,1223.45
				c-50.82-0.18-90.45-36.57-90.45-88.23c0-35.29,17.41-64.01,46.33-77.11c15.59-7.05,39.16-11.58,58.66-22.18
				c14.79-8.05,22.43-16.78,28.47-25.74c-2.06,17.75-12.22,29.93-22.87,37.8c10.5,59.27,52.37,72.07,60.58,100.66
				C989.59,1180.89,954.98,1223.65,899.62,1223.45z"/>
		</g>
		<path class="st1" d="M529.58,411.83c4.49-3.01,10.45-6.82,13.76-8.86c-4.01-9.99-12.77-31.83-20.02-49.67
			c-2.89-7.57-6.71-16.03-9.99-23.18l0.35-0.23c5.16,5.72,11.44,12.37,16.98,18.17c13.94,14.37,30.73,31.5,37.46,38.34
			c2.58-1.89,8.38-5.93,15.3-10.55c5.07-3.39,9.76-6.36,13.07-8.4c-5.98-16.18-29.36-77.62-36.69-100.57l-21.45,14.33
			c5.09,10.11,17.58,37.79,26.76,58.01c3.2,7.53,5.78,13.15,7.98,17.68l-0.69,0.46c-3.39-3.57-7.66-8.22-13.71-14.02
			c-16.21-16.02-36.85-38.42-43.86-46.41c-3.38,2.43-8.69,5.97-12.95,8.82c-4.15,2.77-11.3,7.55-15.07,9.9
			c5.32,9.96,17.23,38.02,25.91,57.74c3.01,7,5.4,13.07,7.56,17.8l-0.69,0.46c-3.58-3.61-8.05-8.3-13.16-13.72
			c-15.6-16.1-38.16-39.88-43.47-46.34l-25.37,16.95c19.05,15.29,64.52,59.12,79.11,72.22C518.93,419.11,522.89,416.3,529.58,411.83
			z"/>
		<path class="st1" d="M643.78,347.89c-0.33-4.12-0.6-12.06-0.94-21.58c7.25-2.38,14.76-4.84,20.03-6.56
			c5.66-1.86,13.18-4.32,20.56-6.74c5.53,8.4,9.88,15,11.49,18.12l29.52-9.67c-18.4-21.84-57.33-74.74-66.91-87.51l-39.66,13
			c0.05,15.74,0.07,82.13-1.34,109.88L643.78,347.89z M653.38,269.89c5.62,7.79,12.36,17.25,18.55,26.32
			c-5.36,1.9-10.9,3.72-14.98,5.05c-3.95,1.3-9.35,3.07-14.67,4.66l-0.76-31.71c-0.04-9.47-0.18-16.14-0.2-21.09
			C644.24,257.12,647.98,262.75,653.38,269.89z"/>
		<path class="st1" d="M738.87,319.91l28.01-2.69c-1.46-7.94-2.98-19.49-4.39-32.72c9.92-1.09,13.51-1.44,20.27-2.08
			c9.94-0.95,12.54,1.58,18.7,17.84c4.34,11.84,4.88,13.18,9.3,12.75l26.08-2.5c-2.08-4.26-5.49-12.28-9.23-20.7
			c-5.69-12.82-11.15-16.06-24.69-16.43l-0.07-0.69c16.97-4.55,22.94-14.87,21.18-33.23c-2.01-20.97-17.82-30.46-43.07-28.04
			l-52.02,4.99c1.71,14.88,3.28,29.77,5.38,51.71C736.44,290.2,737.57,304.86,738.87,319.91z M777.65,233.47
			c13.11-1.26,19.57,0.77,20.72,12.77c0.93,9.66-4.13,15.02-15.31,16.09c-9.53,0.77-18.09,1.6-22.79,1.91
			c-0.89-9.25-1.8-18.77-2.73-28.43C764.14,234.91,773.79,233.84,777.65,233.47z"/>
		<path class="st1" d="M898.89,318.1c31.58,3.27,46.17-8.33,48.11-27.08c1.98-19.17-8.18-30.12-36.99-37.28
			c-21.75-5.32-23.75-10.27-23.27-14.95c0.53-5.1,4.87-8,18.25-6.61c17.65,1.83,21.09,6.36,20.47,12.3
			c-0.09,0.83-0.2,1.93-0.44,2.88c2.91,0.16,7.75,0.52,12.44,1c4.69,0.49,9.23,1.09,12.11,1.53c0.36-2.05,0.69-3.96,0.88-5.76
			c1.83-17.65-9.16-30.08-42.4-33.52c-30.62-3.17-46.03,8.34-47.81,25.58c-1.81,17.52,6.3,29.37,38.24,37.28
			c20.4,4.9,23.66,9.84,23.03,15.91c-0.59,5.66-5.08,8.68-20.53,7.08c-15.86-1.64-20.21-5.44-19.25-14.68l0.14-1.38
			c-3.75-0.11-8.59-0.47-13.84-1.01c-4.83-0.5-9.62-1.28-12.47-2.13c-0.52,2.32-0.87,4.37-1.1,6.58
			C852.58,302.29,864.69,314.56,898.89,318.1z"/>
		<path class="st1" d="M992.38,312.45c7.25,2.37,14.76,4.84,20.03,6.56c5.66,1.86,13.18,4.32,20.56,6.74
			c-0.52,10.04-0.92,17.94-1.47,21.41l29.52,9.67c-1.9-28.49-1.96-94.18-2.13-110.14l-39.66-13c-9.28,12.72-48.56,66.24-66.13,87.77
			l27.27,8.94C982.55,326.89,987.03,320.33,992.38,312.45z M1022.16,269.68c5.58-7.66,9.41-13.11,12.33-17.12
			c-0.02,4.96-0.34,11.71-0.2,20.65c-0.09,9.6-0.25,21.23-0.63,32.19c-5.45-1.64-10.98-3.45-15.07-4.79
			c-3.95-1.3-9.35-3.07-14.58-4.93L1022.16,269.68z"/>
		<path class="st1" d="M1107.91,385.42c7.7-7.53,24.53-23.97,38.23-37.5c5.89-5.57,12.24-12.33,17.6-18.09l0.35,0.23
			c-3.31,6.96-7.05,15.3-10.3,22.64c-7.94,18.38-17.35,40.44-21.09,49.28c2.73,1.66,8.69,5.47,15.6,10.09
			c5.07,3.39,9.61,6.59,12.76,8.86c12.67-11.72,60.48-56.82,78.88-72.37l-21.45-14.33c-7.39,8.57-28.19,30.7-43.36,46.91
			c-5.74,5.84-9.93,10.37-13.28,14.14l-0.69-0.46c2-4.5,4.67-10.23,7.71-18.03c8.6-21.1,21.4-48.74,26.1-58.28
			c-3.53-2.2-8.84-5.74-13.1-8.59c-4.15-2.77-11.3-7.55-14.91-10.13c-7.16,8.72-28.54,30.47-43.43,46.03
			c-5.31,5.46-10.01,9.99-13.56,13.79l-0.69-0.46c1.97-4.69,4.59-10.61,7.63-17.41c8.91-20.57,22.25-50.51,26.18-57.89l-25.37-16.95
			c-6.83,23.45-29.93,82.23-36.45,100.72c2.38,1.43,6.5,4.01,13.18,8.48C1098.95,379.1,1104.76,383.14,1107.91,385.42z"/>
		<path class="st1" d="M371.27,1276.16l-2.12,1c-9.51,4.55-18.51,1.79-24.73-11.22c-7-14.63-3.04-25.29,17.22-34.99
			c19.76-9.46,29.12-5.63,36.01,8.44c6.04,12.63,5.27,21.3-6.73,27.04l-1.88,0.9c2.04,3.96,3.78,7.58,5.69,11.59
			c1.85,3.88,3.83,8,5.62,12.07c2.06-0.85,4.12-1.69,6-2.58c18.13-8.68,27.41-28.48,13.16-58.25
			c-14.9-31.14-39.95-38.52-70.46-23.92c-33.39,15.98-40.33,40.97-26.33,70.23c13.35,27.89,34.79,35.76,56.42,25.41
			c1.25-0.6,2.32-1.26,3.63-1.73c-2.1-4.05-4.07-8.18-5.99-12.18C374.92,1284.09,373.06,1280.22,371.27,1276.16z"/>
		<path class="st1" d="M482.14,1321.48c-20.88-22.8-47.78-27.12-74.16-2.96c-26.17,23.97-27.41,52.18-5.59,76
			c21.82,23.82,50.31,25.37,76.48,1.4C505.24,1371.75,503.02,1344.28,482.14,1321.48z M459.62,1376.13
			c-14.32,13.11-28.2,14.17-39.25,2.1c-11.05-12.06-9.17-25.82,5.35-39.11c14.62-13.39,27.76-13.21,38.72-1.24
			C475.39,1349.84,474.03,1362.93,459.62,1376.13z"/>
		<path class="st1" d="M542.54,1406.67c13.09,8.36,29.03,18.7,45.2,29.18c1.63-3.07,4.17-7.05,6.63-10.9
			c1.94-3.04,4.37-6.59,6.05-8.97l-68.26-43.57c-7.26,12.15-15.65,25.55-27.51,44.13c-11.86,18.58-20.53,31.64-28.45,43.53
			l23.73,15.14c4.87-8.41,11.13-18.72,17.35-28.73c15.43,9.85,30.9,19.89,44.06,28.13c2.99-4.68,8.88-13.91,12.1-18.43
			c-13.59-8.35-28.98-18-44.64-28L542.54,1406.67z"/>
		<path class="st1" d="M602.36,1473.68c-7.54,20.72-13.15,35.35-18.3,48.67l26.45,9.62c2.92-9.26,6.79-20.7,10.69-31.82
			c17.2,6.26,34.49,12.69,49.13,17.87c1.89-5.21,5.64-15.5,7.8-20.62c-15.08-5.19-32.2-11.27-49.66-17.62l8.72-23.98
			c14.59,5.31,32.4,11.93,50.46,18.65c0.93-3.35,2.54-7.78,4.1-12.08c1.23-3.39,2.83-7.38,3.96-10.07l-76.1-27.68
			C615.17,1438.06,609.9,1452.96,602.36,1473.68z"/>
		<path class="st1" d="M710.01,1508.78c-3.23,21.94-5.59,37.99-8.12,51.35l81.46,11.99c0.13-2.78,0.87-7.86,1.36-11.15
			c0.61-4.11,1.46-9.87,2.13-12.58c-17.98-2.51-39.53-5.54-54.76-7.78l2.75-18.65c18.1,2.66,38.51,5.81,53.28,8.27
			c0.73-4.94,2.42-16.46,3.24-21.1c-15.14-1.81-35.3-4.78-53.54-7.46l2.67-18.1c15.22,2.24,35.91,5.43,54.67,8.33
			c0.11-2.65,0.96-8.41,1.5-12.11c0.5-3.43,1.35-8.21,1.83-10.52l-81.46-11.99C715.71,1470.11,713.22,1486.98,710.01,1508.78z"/>
		<path class="st1" d="M909.76,1546.55c-18.13,0.94-39.87,2.03-55.24,2.71l-0.83-18.83c18.28-0.81,38.92-1.58,53.89-1.96
			c-0.22-4.99-0.73-16.62-0.8-21.33c-15.21,1.09-35.57,1.98-53.99,2.8l-0.8-18.28c15.37-0.68,36.29-1.46,55.26-2.16
			c-0.39-2.62-0.65-8.44-0.82-12.18c-0.15-3.46-0.23-8.31-0.19-10.68l-82.26,3.62c1.12,12.85,1.87,29.89,2.84,51.9
			c0.98,22.16,1.69,38.36,1.73,51.95l82.26-3.62c-0.4-2.76-0.62-7.88-0.77-11.2C909.86,1555.15,909.61,1549.33,909.76,1546.55z"/>
		<path class="st1" d="M1052.54,1440.11c-1.36-4.08-2.81-8.42-3.6-11.22l-78.92,26.32c1.1,2.85,2.5,7.06,3.86,11.14
			c1.18,3.55,2.76,8.28,3.64,11.35c9.3-3.24,18.59-6.49,26.88-9.25c11.58,34.72,22.85,68.96,25,76.72
			c3.68-1.67,8.94-3.42,12.89-4.74c3.81-1.27,9.6-3.2,13.15-3.95c-2.98-7.63-14.52-41.78-26.05-76.37
			c8.28-2.76,17.67-5.75,27.05-8.73C1055.31,1448.4,1053.73,1443.67,1052.54,1440.11z"/>
		<path class="st1" d="M1102.99,1396.83c-26.46,16-35.98,41.52-17.47,72.13c18.37,30.37,45.78,37.13,73.43,20.41
			c27.65-16.72,34.76-44.35,16.39-74.72C1156.82,1384.05,1129.44,1380.84,1102.99,1396.83z M1146.51,1468.54
			c-14,8.47-27.12,3.92-37.3-12.93c-10.26-16.97-7.5-29.82,6.39-38.21c13.88-8.39,26.45-4.49,36.57,12.24
			C1162.2,1446.26,1160.51,1460.08,1146.51,1468.54z"/>
		<path class="st1" d="M1272.89,1329c-7.24-6.67-16.51-14.83-22.52-20.37c-9.28-8.55-15.42-14.58-21.45-20.51l-18.79,20.4
			c11.1,9.85,32.71,29.37,44.03,39.8c11.53,10.62,12.58,19.5,2.43,30.52c-10.42,11.32-20.03,11.72-31.55,1.1
			c-11.32-10.43-32.55-30.17-43.18-40.72l-18.79,20.4c6.41,5.53,12.92,11.15,22.21,19.69c6.02,5.54,14.91,14.11,22.15,20.78
			c20.4,18.79,43.06,21,66.55-4.5C1297.45,1370.1,1293.29,1347.79,1272.89,1329z"/>
		<path class="st1" d="M1354.7,1222.78c-13.93-1.72-19.51,1.31-26.79,12.73l-0.62-0.3c4.82-16.9-0.96-27.33-17.61-35.26
			c-19.03-9.06-35.29-0.37-46.2,22.53l-22.47,47.19c13.64,6.19,27.22,12.5,47.12,21.97c20.03,9.54,33.18,16.1,46.76,22.73
			l12.1-25.41c-7.56-2.83-18.26-7.46-30.33-13.06c4.17-9.07,5.72-12.33,8.64-18.46c4.29-9.01,7.81-9.95,24.92-6.87
			c12.39,2.37,13.82,2.58,15.73-1.42l11.26-23.66C1372.48,1225.1,1363.83,1223.9,1354.7,1222.78z M1308.21,1246.87
			c-4.24,8.58-7.93,16.34-10.08,20.53c-8.39-3.99-17.03-8.11-25.79-12.28c2.61-6.13,6.66-14.95,8.32-18.45
			c5.66-11.89,10.72-16.39,21.61-11.21C1311.04,1229.63,1313.04,1236.73,1308.21,1246.87z"/>
	</g>
</g>
</svg>
